<?xml version="1.0" encoding="UTF-8" standalone="no"?>
<!DOCTYPE svg PUBLIC "-//W3C//DTD SVG 1.1//EN"
 "http://www.w3.org/Graphics/SVG/1.1/DTD/svg11.dtd">
<!-- Generated by graphviz version 2.43.0 (0)
 -->
<!-- Title: /home/runner/work/libsubprocess/libsubprocess/include/subprocess/error.h Pages: 1 -->
<svg width="225pt" height="95pt"
 viewBox="0.00 0.00 225.00 95.00" xmlns="http://www.w3.org/2000/svg" xmlns:xlink="http://www.w3.org/1999/xlink">
<g id="graph0" class="graph" transform="scale(1 1) rotate(0) translate(4 91)">
<title>/home/runner/work/libsubprocess/libsubprocess/include/subprocess/error.h</title>
<!-- Node1 -->
<g id="node1" class="node">
<title>Node1</title>
<g id="a_node1"><a xlink:title="Error handling API.">
<polygon fill="#bfbfbf" stroke="black" points="0,-56.5 0,-86.5 217,-86.5 217,-56.5 0,-56.5"/>
<text text-anchor="start" x="8" y="-74.5" font-family="Helvetica,sans-Serif" font-size="10.00">/home/runner/work/libsubprocess</text>
<text text-anchor="middle" x="108.5" y="-63.5" font-family="Helvetica,sans-Serif" font-size="10.00">/libsubprocess/include/subprocess/error.h</text>
</a>
</g>
</g>
<!-- Node2 -->
<g id="node2" class="node">
<title>Node2</title>
<g id="a_node2"><a xlink:title=" ">
<polygon fill="none" stroke="#bfbfbf" points="48,-0.5 48,-19.5 99,-19.5 99,-0.5 48,-0.5"/>
<text text-anchor="middle" x="73.5" y="-7.5" font-family="Helvetica,sans-Serif" font-size="10.00">errno.h</text>
</a>
</g>
</g>
<!-- Node1&#45;&gt;Node2 -->
<g id="edge1" class="edge">
<title>Node1&#45;&gt;Node2</title>
<path fill="none" stroke="midnightblue" d="M100.21,-56.4C95.28,-48.02 88.99,-37.33 83.75,-28.42"/>
<polygon fill="midnightblue" stroke="midnightblue" points="86.68,-26.5 78.59,-19.66 80.65,-30.05 86.68,-26.5"/>
</g>
<!-- Node3 -->
<g id="node3" class="node">
<title>Node3</title>
<g id="a_node3"><a xlink:title=" ">
<polygon fill="none" stroke="#bfbfbf" points="117,-0.5 117,-19.5 170,-19.5 170,-0.5 117,-0.5"/>
<text text-anchor="middle" x="143.5" y="-7.5" font-family="Helvetica,sans-Serif" font-size="10.00">string.h</text>
</a>
</g>
</g>
<!-- Node1&#45;&gt;Node3 -->
<g id="edge2" class="edge">
<title>Node1&#45;&gt;Node3</title>
<path fill="none" stroke="midnightblue" d="M116.79,-56.4C121.72,-48.02 128.01,-37.33 133.25,-28.42"/>
<polygon fill="midnightblue" stroke="midnightblue" points="136.35,-30.05 138.41,-19.66 130.32,-26.5 136.35,-30.05"/>
</g>
</g>
</svg>
