<?xml version="1.0" encoding="UTF-8" standalone="no"?>
<!DOCTYPE svg PUBLIC "-//W3C//DTD SVG 1.1//EN"
 "http://www.w3.org/Graphics/SVG/1.1/DTD/svg11.dtd">
<!-- Generated by graphviz version 2.43.0 (0)
 -->
<!-- Title: /home/runner/work/libsubprocess/libsubprocess/include/subprocess/process.h Pages: 1 -->
<svg width="429pt" height="218pt"
 viewBox="0.00 0.00 428.50 218.00" xmlns="http://www.w3.org/2000/svg" xmlns:xlink="http://www.w3.org/1999/xlink">
<g id="graph0" class="graph" transform="scale(1 1) rotate(0) translate(4 214)">
<title>/home/runner/work/libsubprocess/libsubprocess/include/subprocess/process.h</title>
<!-- Node1 -->
<g id="node1" class="node">
<title>Node1</title>
<g id="a_node1"><a xlink:title="Process API.">
<polygon fill="#bfbfbf" stroke="black" points="94,-168.5 94,-209.5 276,-209.5 276,-168.5 94,-168.5"/>
<text text-anchor="start" x="102" y="-197.5" font-family="Helvetica,sans-Serif" font-size="10.00">/home/runner/work/libsubprocess</text>
<text text-anchor="start" x="102" y="-186.5" font-family="Helvetica,sans-Serif" font-size="10.00">/libsubprocess/include/subprocess</text>
<text text-anchor="middle" x="185" y="-175.5" font-family="Helvetica,sans-Serif" font-size="10.00">/process.h</text>
</a>
</g>
</g>
<!-- Node2 -->
<g id="node2" class="node">
<title>Node2</title>
<g id="a_node2"><a xlink:title=" ">
<polygon fill="none" stroke="#bfbfbf" points="0,-56.5 0,-75.5 50,-75.5 50,-56.5 0,-56.5"/>
<text text-anchor="middle" x="25" y="-63.5" font-family="Helvetica,sans-Serif" font-size="10.00">stdio.h</text>
</a>
</g>
</g>
<!-- Node1&#45;&gt;Node2 -->
<g id="edge1" class="edge">
<title>Node1&#45;&gt;Node2</title>
<path fill="none" stroke="midnightblue" d="M100.12,-168.43C79.44,-160.15 58.98,-148.46 44,-132 32.51,-119.38 27.94,-100.17 26.14,-85.9"/>
<polygon fill="midnightblue" stroke="midnightblue" points="29.61,-85.38 25.21,-75.74 22.63,-86.01 29.61,-85.38"/>
</g>
<!-- Node3 -->
<g id="node3" class="node">
<title>Node3</title>
<g id="a_node3"><a xlink:title=" ">
<polygon fill="none" stroke="#bfbfbf" points="180,-0.5 180,-19.5 236,-19.5 236,-0.5 180,-0.5"/>
<text text-anchor="middle" x="208" y="-7.5" font-family="Helvetica,sans-Serif" font-size="10.00">unistd.h</text>
</a>
</g>
</g>
<!-- Node1&#45;&gt;Node3 -->
<g id="edge2" class="edge">
<title>Node1&#45;&gt;Node3</title>
<path fill="none" stroke="midnightblue" d="M197.15,-168.27C209.73,-146.58 228.57,-110.24 236,-76 237.88,-67.31 238.44,-64.55 236,-56 233.1,-45.84 227.17,-35.75 221.51,-27.7"/>
<polygon fill="midnightblue" stroke="midnightblue" points="224.22,-25.48 215.41,-19.59 218.62,-29.69 224.22,-25.48"/>
</g>
<!-- Node4 -->
<g id="node4" class="node">
<title>Node4</title>
<g id="a_node4"><a xlink:href="error_8h.html" target="_top" xlink:title="Error handling API.">
<polygon fill="none" stroke="black" points="284,-112.5 284,-131.5 390,-131.5 390,-112.5 284,-112.5"/>
<text text-anchor="middle" x="337" y="-119.5" font-family="Helvetica,sans-Serif" font-size="10.00">subprocess/error.h</text>
</a>
</g>
</g>
<!-- Node1&#45;&gt;Node4 -->
<g id="edge3" class="edge">
<title>Node1&#45;&gt;Node4</title>
<path fill="none" stroke="midnightblue" d="M230.61,-168.5C255.48,-157.86 285.55,-145 307.37,-135.67"/>
<polygon fill="midnightblue" stroke="midnightblue" points="308.95,-138.8 316.77,-131.65 306.2,-132.37 308.95,-138.8"/>
</g>
<!-- Node7 -->
<g id="node7" class="node">
<title>Node7</title>
<g id="a_node7"><a xlink:href="pipe_8h.html" target="_top" xlink:title="Pipe API.">
<polygon fill="none" stroke="black" points="53,-112.5 53,-131.5 157,-131.5 157,-112.5 53,-112.5"/>
<text text-anchor="middle" x="105" y="-119.5" font-family="Helvetica,sans-Serif" font-size="10.00">subprocess/pipe.h</text>
</a>
</g>
</g>
<!-- Node1&#45;&gt;Node7 -->
<g id="edge6" class="edge">
<title>Node1&#45;&gt;Node7</title>
<path fill="none" stroke="midnightblue" d="M161,-168.5C148.97,-158.72 134.63,-147.07 123.47,-138.01"/>
<polygon fill="midnightblue" stroke="midnightblue" points="125.62,-135.24 115.65,-131.65 121.2,-140.67 125.62,-135.24"/>
</g>
<!-- Node9 -->
<g id="node9" class="node">
<title>Node9</title>
<g id="a_node9"><a xlink:href="redirect_8h.html" target="_top" xlink:title="File Redirection API.">
<polygon fill="none" stroke="black" points="106.5,-56.5 106.5,-75.5 227.5,-75.5 227.5,-56.5 106.5,-56.5"/>
<text text-anchor="middle" x="167" y="-63.5" font-family="Helvetica,sans-Serif" font-size="10.00">subprocess/redirect.h</text>
</a>
</g>
</g>
<!-- Node1&#45;&gt;Node9 -->
<g id="edge12" class="edge">
<title>Node1&#45;&gt;Node9</title>
<path fill="none" stroke="midnightblue" d="M182.07,-168.29C178.66,-145.37 173.08,-107.85 169.75,-85.47"/>
<polygon fill="midnightblue" stroke="midnightblue" points="173.21,-84.95 168.28,-75.57 166.29,-85.98 173.21,-84.95"/>
</g>
<!-- Node5 -->
<g id="node5" class="node">
<title>Node5</title>
<g id="a_node5"><a xlink:title=" ">
<polygon fill="none" stroke="#bfbfbf" points="298.5,-56.5 298.5,-75.5 349.5,-75.5 349.5,-56.5 298.5,-56.5"/>
<text text-anchor="middle" x="324" y="-63.5" font-family="Helvetica,sans-Serif" font-size="10.00">errno.h</text>
</a>
</g>
</g>
<!-- Node4&#45;&gt;Node5 -->
<g id="edge4" class="edge">
<title>Node4&#45;&gt;Node5</title>
<path fill="none" stroke="midnightblue" d="M334.85,-112.08C333.13,-104.93 330.65,-94.64 328.5,-85.69"/>
<polygon fill="midnightblue" stroke="midnightblue" points="331.85,-84.65 326.11,-75.75 325.04,-86.29 331.85,-84.65"/>
</g>
<!-- Node6 -->
<g id="node6" class="node">
<title>Node6</title>
<g id="a_node6"><a xlink:title=" ">
<polygon fill="none" stroke="#bfbfbf" points="367.5,-56.5 367.5,-75.5 420.5,-75.5 420.5,-56.5 367.5,-56.5"/>
<text text-anchor="middle" x="394" y="-63.5" font-family="Helvetica,sans-Serif" font-size="10.00">string.h</text>
</a>
</g>
</g>
<!-- Node4&#45;&gt;Node6 -->
<g id="edge5" class="edge">
<title>Node4&#45;&gt;Node6</title>
<path fill="none" stroke="midnightblue" d="M346.16,-112.32C354.5,-104.42 367.03,-92.55 377.18,-82.94"/>
<polygon fill="midnightblue" stroke="midnightblue" points="379.82,-85.25 384.68,-75.83 375.01,-80.17 379.82,-85.25"/>
</g>
<!-- Node7&#45;&gt;Node2 -->
<g id="edge8" class="edge">
<title>Node7&#45;&gt;Node2</title>
<path fill="none" stroke="midnightblue" d="M92.15,-112.32C79.78,-103.98 60.87,-91.21 46.26,-81.35"/>
<polygon fill="midnightblue" stroke="midnightblue" points="48.07,-78.35 37.82,-75.65 44.15,-84.15 48.07,-78.35"/>
</g>
<!-- Node8 -->
<g id="node8" class="node">
<title>Node8</title>
<g id="a_node8"><a xlink:title=" ">
<polygon fill="none" stroke="#bfbfbf" points="94,-0.5 94,-19.5 156,-19.5 156,-0.5 94,-0.5"/>
<text text-anchor="middle" x="125" y="-7.5" font-family="Helvetica,sans-Serif" font-size="10.00">stdbool.h</text>
</a>
</g>
</g>
<!-- Node7&#45;&gt;Node8 -->
<g id="edge7" class="edge">
<title>Node7&#45;&gt;Node8</title>
<path fill="none" stroke="midnightblue" d="M101.82,-112.42C97.62,-99.82 91.38,-75.68 97,-56 99.9,-45.84 105.83,-35.75 111.49,-27.7"/>
<polygon fill="midnightblue" stroke="midnightblue" points="114.38,-29.69 117.59,-19.59 108.78,-25.48 114.38,-29.69"/>
</g>
<!-- Node7&#45;&gt;Node9 -->
<g id="edge9" class="edge">
<title>Node7&#45;&gt;Node9</title>
<path fill="none" stroke="midnightblue" d="M114.96,-112.32C124.13,-104.34 137.94,-92.31 149.03,-82.65"/>
<polygon fill="midnightblue" stroke="midnightblue" points="151.62,-85.04 156.86,-75.83 147.02,-79.76 151.62,-85.04"/>
</g>
<!-- Node9&#45;&gt;Node3 -->
<g id="edge11" class="edge">
<title>Node9&#45;&gt;Node3</title>
<path fill="none" stroke="midnightblue" d="M173.77,-56.08C179.56,-48.46 188.06,-37.26 195.14,-27.94"/>
<polygon fill="midnightblue" stroke="midnightblue" points="198.1,-29.83 201.36,-19.75 192.52,-25.6 198.1,-29.83"/>
</g>
<!-- Node9&#45;&gt;Node8 -->
<g id="edge10" class="edge">
<title>Node9&#45;&gt;Node8</title>
<path fill="none" stroke="midnightblue" d="M160.06,-56.08C154.07,-48.38 145.25,-37.03 137.95,-27.65"/>
<polygon fill="midnightblue" stroke="midnightblue" points="140.71,-25.5 131.81,-19.75 135.18,-29.79 140.71,-25.5"/>
</g>
</g>
</svg>
