<?xml version="1.0" encoding="UTF-8" standalone="no"?>
<!DOCTYPE svg PUBLIC "-//W3C//DTD SVG 1.1//EN"
 "http://www.w3.org/Graphics/SVG/1.1/DTD/svg11.dtd">
<!-- Generated by graphviz version 2.43.0 (0)
 -->
<!-- Title: /home/runner/work/libsubprocess/libsubprocess/include/subprocess/redirect.h Pages: 1 -->
<svg width="275pt" height="195pt"
 viewBox="0.00 0.00 274.50 195.00" xmlns="http://www.w3.org/2000/svg" xmlns:xlink="http://www.w3.org/1999/xlink">
<g id="graph0" class="graph" transform="scale(1 1) rotate(0) translate(4 191)">
<title>/home/runner/work/libsubprocess/libsubprocess/include/subprocess/redirect.h</title>
<!-- Node1 -->
<g id="node1" class="node">
<title>Node1</title>
<g id="a_node1"><a xlink:title="File Redirection API.">
<polygon fill="#bfbfbf" stroke="black" points="84.5,-145.5 84.5,-186.5 266.5,-186.5 266.5,-145.5 84.5,-145.5"/>
<text text-anchor="start" x="92.5" y="-174.5" font-family="Helvetica,sans-Serif" font-size="10.00">/home/runner/work/libsubprocess</text>
<text text-anchor="start" x="92.5" y="-163.5" font-family="Helvetica,sans-Serif" font-size="10.00">/libsubprocess/include/subprocess</text>
<text text-anchor="middle" x="175.5" y="-152.5" font-family="Helvetica,sans-Serif" font-size="10.00">/redirect.h</text>
</a>
</g>
</g>
<!-- Node2 -->
<g id="node2" class="node">
<title>Node2</title>
<g id="a_node2"><a xlink:href="pipe_8h.html" target="_top" xlink:title="Pipe API.">
<polygon fill="none" stroke="black" points="0,-78.5 0,-108.5 215,-108.5 215,-78.5 0,-78.5"/>
<text text-anchor="start" x="8" y="-96.5" font-family="Helvetica,sans-Serif" font-size="10.00">/home/runner/work/libsubprocess</text>
<text text-anchor="middle" x="107.5" y="-85.5" font-family="Helvetica,sans-Serif" font-size="10.00">/libsubprocess/include/subprocess/pipe.h</text>
</a>
</g>
</g>
<!-- Node1&#45;&gt;Node2 -->
<g id="edge1" class="edge">
<title>Node1&#45;&gt;Node2</title>
<path fill="none" stroke="midnightblue" d="M149.48,-138.02C139.92,-128.11 129.46,-117.27 121.38,-108.89"/>
<polygon fill="midnightblue" stroke="midnightblue" points="147.1,-140.59 156.56,-145.36 152.14,-135.73 147.1,-140.59"/>
</g>
<!-- Node3 -->
<g id="node3" class="node">
<title>Node3</title>
<g id="a_node3"><a xlink:href="process_8h.html" target="_top" xlink:title="Process API.">
<polygon fill="none" stroke="black" points="84.5,-0.5 84.5,-41.5 266.5,-41.5 266.5,-0.5 84.5,-0.5"/>
<text text-anchor="start" x="92.5" y="-29.5" font-family="Helvetica,sans-Serif" font-size="10.00">/home/runner/work/libsubprocess</text>
<text text-anchor="start" x="92.5" y="-18.5" font-family="Helvetica,sans-Serif" font-size="10.00">/libsubprocess/include/subprocess</text>
<text text-anchor="middle" x="175.5" y="-7.5" font-family="Helvetica,sans-Serif" font-size="10.00">/process.h</text>
</a>
</g>
</g>
<!-- Node1&#45;&gt;Node3 -->
<g id="edge3" class="edge">
<title>Node1&#45;&gt;Node3</title>
<path fill="none" stroke="midnightblue" d="M205.93,-138.07C213.45,-129.6 220.5,-119.65 224.5,-109 229.35,-96.1 229.35,-90.9 224.5,-78 219.27,-64.09 208.86,-51.38 198.96,-41.59"/>
<polygon fill="midnightblue" stroke="midnightblue" points="203.31,-135.74 198.96,-145.41 208.39,-140.56 203.31,-135.74"/>
</g>
<!-- Node2&#45;&gt;Node3 -->
<g id="edge2" class="edge">
<title>Node2&#45;&gt;Node3</title>
<path fill="none" stroke="midnightblue" d="M128.41,-70.82C137.41,-61.49 147.85,-50.67 156.61,-41.59"/>
<polygon fill="midnightblue" stroke="midnightblue" points="125.68,-68.61 121.26,-78.23 130.72,-73.47 125.68,-68.61"/>
</g>
</g>
</svg>
